<?xml version="1.0" standalone="no"?>
<!DOCTYPE svg PUBLIC "-//W3C//DTD SVG 20010904//EN"
 "http://www.w3.org/TR/2001/REC-SVG-20010904/DTD/svg10.dtd">
<svg version="1.0" xmlns="http://www.w3.org/2000/svg"
 width="138.500000pt" height="28.000000pt" viewBox="0 0 277.000000 56.000000"
 preserveAspectRatio="xMidYMid meet">

<g transform="translate(0.000000,56.000000) scale(0.100000,-0.100000)"
fill="#000000" stroke="none">
<path d="M247 503 c-8 -14 -157 -399 -157 -407 0 -4 21 -6 47 -4 44 3 47 5 62
46 l15 42 82 0 82 0 18 -45 c17 -45 17 -45 66 -45 27 0 48 4 46 9 -1 5 -39 99
-83 210 l-80 201 -47 0 c-26 0 -49 -3 -51 -7z m88 -215 c7 -28 6 -28 -39 -28
-25 0 -46 4 -46 10 0 5 10 35 22 67 l21 58 18 -40 c10 -22 21 -52 24 -67z"/>
<path d="M1060 300 l0 -210 39 0 38 0 5 106 c5 115 15 136 63 137 15 0 31 -7
36 -14 5 -8 9 -62 9 -121 l0 -108 45 0 45 0 0 110 c0 119 -13 170 -48 189 -29
16 -88 14 -122 -4 l-30 -16 0 71 0 70 -40 0 -40 0 0 -210z"/>
<path d="M908 478 c-30 -17 -38 -28 -38 -50 0 -18 -5 -28 -15 -28 -10 0 -15
-11 -15 -35 0 -24 5 -35 15 -35 12 0 15 -17 15 -92 0 -106 12 -138 55 -150 44
-12 95 0 95 22 0 34 -12 50 -36 50 -23 0 -24 2 -24 85 0 84 0 85 25 85 22 0
25 4 25 35 0 31 -3 35 -25 35 -23 0 -25 3 -25 50 0 28 -3 50 -7 50 -5 0 -25
-10 -45 -22z"/>
<path d="M600 387 c-44 -22 -70 -73 -70 -139 0 -112 50 -165 153 -161 55 1 90
21 112 62 l15 29 -41 7 c-35 6 -43 4 -55 -14 -27 -38 -94 -15 -94 32 0 15 13
17 95 17 l95 0 0 36 c0 49 -27 103 -64 125 -36 22 -109 25 -146 6z m118 -96
c3 -19 -1 -21 -48 -21 -47 0 -51 2 -48 22 4 32 47 51 73 34 11 -7 21 -23 23
-35z"/>
<path d="M1460 378 c-68 -47 -88 -134 -50 -214 50 -103 215 -105 274 -4 45 76
15 189 -58 224 -50 24 -126 21 -166 -6z m136 -69 c12 -14 19 -36 19 -64 0 -52
-26 -85 -66 -85 -39 0 -69 35 -69 81 0 74 72 117 116 68z"/>
<path d="M1760 245 l0 -155 39 0 38 0 5 104 c3 60 10 111 17 119 18 22 47 26
70 10 19 -13 21 -24 21 -124 l0 -109 46 0 46 0 -4 131 c-3 129 -3 131 -31 155
-33 28 -92 32 -137 9 -25 -13 -29 -13 -34 0 -3 9 -19 15 -41 15 l-35 0 0 -155z"/>
<path d="M2160 387 c-44 -22 -70 -73 -70 -139 0 -112 50 -165 153 -161 55 1
90 21 112 62 l15 29 -41 7 c-35 6 -43 4 -55 -14 -27 -38 -94 -15 -94 32 0 15
13 17 95 17 l95 0 0 36 c0 49 -27 103 -64 125 -36 22 -109 25 -146 6z m118
-96 c3 -19 -1 -21 -48 -21 -47 0 -51 2 -48 22 4 32 47 51 73 34 11 -7 21 -23
23 -35z"/>
<path d="M2400 392 c0 -4 20 -37 45 -72 25 -35 45 -68 45 -73 0 -5 -19 -37
-43 -71 -65 -92 -65 -86 -8 -86 48 0 52 2 77 40 15 22 29 40 33 40 3 0 17 -18
31 -40 24 -39 27 -40 79 -40 l53 0 -15 23 c-8 13 -33 49 -56 81 l-40 58 50 68
c27 37 49 71 49 74 0 3 -22 6 -49 6 -46 0 -50 -2 -76 -42 l-28 -42 -24 42
c-24 40 -27 42 -74 42 -27 0 -49 -4 -49 -8z"/>
</g>
</svg>
